<svg width="167" height="50" viewBox="0 0 167 50" fill="none" xmlns="http://www.w3.org/2000/svg">
<path d="M56.84 39.48C56.4933 39.2667 56.3067 39.0533 56.28 38.84C56.2533 38.6533 56.32 38.28 56.48 37.72C56.4533 37.3733 56.4667 37.0533 56.52 36.76C56.6 36.4667 56.6533 36.2667 56.68 36.16C56.8133 36.16 56.8933 36.08 56.92 35.92C56.9467 35.76 56.96 35.6267 56.96 35.52C56.96 35.3067 57.04 34.9467 57.2 34.44C57.3867 33.9333 57.5467 33.4133 57.68 32.88C57.8933 32.3467 58.0933 31.8533 58.28 31.4C58.4933 30.92 58.6 30.6267 58.6 30.52C58.6 30.3067 58.6533 30.0933 58.76 29.88C58.8667 29.64 58.9867 29.4133 59.12 29.2C59.2533 28.88 59.3467 28.5333 59.4 28.16C59.48 27.76 59.52 27.4533 59.52 27.24C59.68 26.8933 59.8533 26.52 60.04 26.12C60.2267 25.72 60.3733 25.3067 60.48 24.88C60.64 24.4267 60.8667 23.7733 61.16 22.92C61.48 22.04 61.8133 21.1467 62.16 20.24C62.4 19.7333 62.64 19.2 62.88 18.64C63.12 18.08 63.3333 17.6 63.52 17.2C63.7067 16.8 63.84 16.6 63.92 16.6C63.92 16.6 63.92 16.56 63.92 16.48C63.92 16.3733 63.92 16.2667 63.92 16.16C63.92 16.0267 64.0267 15.7733 64.24 15.4C64.4533 15 64.6533 14.5867 64.84 14.16C65.1067 13.76 65.2933 13.3867 65.4 13.04C65.5067 12.6667 65.56 12.48 65.56 12.48C65.56 12.48 65.6 12.4 65.68 12.24C65.7867 12.08 65.8933 11.9467 66 11.84C66.3467 11.6 66.6667 11.5067 66.96 11.56C67.28 11.6133 67.5467 11.8667 67.76 12.32C67.9733 12.7467 68.0667 13.1067 68.04 13.4C68.0133 13.6667 67.8933 13.96 67.68 14.28C67.4667 14.76 67.1867 15.3733 66.84 16.12C66.4933 16.84 66.12 17.6267 65.72 18.48C65.3467 19.3067 64.9867 20.1067 64.64 20.88C64.32 21.6267 64.0533 22.28 63.84 22.84C63.6533 23.3733 63.56 23.7067 63.56 23.84L61.92 27.88C61.92 27.9333 61.8667 28.0667 61.76 28.28C61.68 28.4933 61.56 28.8133 61.4 29.24C61.2667 29.6667 61.0933 30.2267 60.88 30.92C60.6667 31.6133 60.4133 32.4533 60.12 33.44C59.5867 35.1467 59.1733 36.48 58.88 37.44C58.5867 38.3733 58.3467 39.0133 58.16 39.36C58 39.7333 57.8267 39.92 57.64 39.92C57.5333 39.92 57.4133 39.8667 57.28 39.76C57.1733 39.68 57.0267 39.5867 56.84 39.48ZM70.96 39.8C70.72 39.8267 70.3867 39.7067 69.96 39.44C69.56 39.2 69.12 38.8933 68.64 38.52C68.1867 38.1467 67.7467 37.76 67.32 37.36C66.92 36.96 66.6 36.6133 66.36 36.32C65.9333 35.7067 65.4 34.9067 64.76 33.92C64.12 32.9067 63.64 31.8267 63.32 30.68C63.1333 29.8267 62.9467 29.16 62.76 28.68C62.5733 28.1733 62.4533 27.76 62.4 27.44L62.44 24.64L64.48 25.28C64.6133 26.72 64.8133 27.92 65.08 28.88C65.3733 29.8133 65.72 30.64 66.12 31.36C66.44 32.0533 66.8 32.7467 67.2 33.44C67.6 34.1067 68.0267 34.6667 68.48 35.12C69.0933 35.7867 69.64 36.28 70.12 36.6C70.6 36.92 70.96 37.08 71.2 37.08C71.3333 37.1067 71.52 37.2 71.76 37.36C72.0267 37.52 72.2667 37.6933 72.48 37.88C72.72 38.04 72.8533 38.2 72.88 38.36C72.9067 38.44 72.92 38.56 72.92 38.72C72.92 38.9067 72.8933 39.0667 72.84 39.2C72.8133 39.36 72.7733 39.48 72.72 39.56C72.64 39.7467 72.4933 39.9067 72.28 40.04C72.0933 40.2 71.6533 40.12 70.96 39.8ZM62 24.96L64.92 22.84C65 22.76 65.28 22.4933 65.76 22.04C66.2667 21.5867 67.0933 20.9333 68.24 20.08L73.16 16.08C73.8267 15.7333 74.5067 15.2933 75.2 14.76C75.92 14.2267 76.4667 13.84 76.84 13.6C77.2933 13.28 77.6933 13 78.04 12.76C78.3867 12.52 78.6133 12.4133 78.72 12.44C78.9333 12.3333 79.1467 12.3733 79.36 12.56C79.6 12.72 79.7867 12.9467 79.92 13.24C80.08 13.5067 80.1467 13.7467 80.12 13.96C80.1733 14.2267 80.12 14.4533 79.96 14.64C79.8 14.8267 79.4133 15.0933 78.8 15.44C78.2933 15.68 77.84 15.92 77.44 16.16C77.0667 16.4 76.84 16.6 76.76 16.76C76.76 16.76 76.5067 16.96 76 17.36C75.52 17.7333 74.8933 18.1867 74.12 18.72C73.0533 19.4133 72.1333 20.0667 71.36 20.68C70.6133 21.2933 70.1333 21.76 69.92 22.08C69.8133 22.08 69.7067 22.12 69.6 22.2C69.52 22.28 69.4267 22.3067 69.32 22.28C69.32 22.28 69.2133 22.3467 69 22.48C68.8133 22.6133 68.6667 22.7467 68.56 22.88C68.5067 23.0133 68.3867 23.2 68.2 23.44C68.04 23.68 67.8267 23.7867 67.56 23.76C67.3733 23.8667 67.04 24.0933 66.56 24.44C66.08 24.76 65.5733 25.12 65.04 25.52C64.5333 25.92 64.0933 26.28 63.72 26.6C63.3467 26.92 63.1467 27.1067 63.12 27.16L62 24.96ZM74.8709 45.96C74.2309 46.1467 73.5243 46.1733 72.7509 46.04C72.0043 45.9333 71.3509 45.7067 70.7909 45.36C70.2043 45.0133 69.8709 44.6267 69.7909 44.2C69.7643 44.04 69.8176 43.8667 69.9509 43.68C70.0576 43.4933 70.2043 43.36 70.3909 43.28C70.5509 43.2267 70.6976 43.28 70.8309 43.44C71.0443 43.5733 71.4309 43.7333 71.9909 43.92C72.5509 44.1333 73.1776 44.1733 73.8709 44.04C74.4843 43.9067 75.0843 43.5467 75.6709 42.96C76.2843 42.3733 76.7776 41.8267 77.1509 41.32C77.3643 41 77.7243 40.4267 78.2309 39.6C78.7376 38.7733 79.2576 37.8667 79.7909 36.88C80.3509 35.8667 80.8176 34.9333 81.1909 34.08C81.2709 33.8667 81.3643 33.6133 81.4709 33.32C81.5776 33.0267 81.7109 32.7867 81.8709 32.6C82.0309 32.28 82.1643 31.9867 82.2709 31.72C82.4043 31.4267 82.4843 31.2267 82.5109 31.12C82.5376 30.9867 82.6576 30.72 82.8709 30.32C83.0843 29.92 83.2843 29.52 83.4709 29.12C83.6043 28.72 83.8043 28.1333 84.0709 27.36C84.3376 26.5867 84.6043 25.96 84.8709 25.48C85.1909 24.8667 85.4443 24.3733 85.6309 24C85.8443 23.6 86.0709 23.36 86.3109 23.28C86.5509 23.0933 86.7109 23 86.7909 23C86.8976 23 87.0976 23.08 87.3909 23.24C87.7109 23.56 87.9109 23.88 87.9909 24.2C88.0709 24.4933 88.0309 24.8667 87.8709 25.32C87.7376 25.7467 87.4709 26.3333 87.0709 27.08C86.8576 27.72 86.6176 28.3067 86.3509 28.84C86.1109 29.3467 85.9243 29.68 85.7909 29.84C85.6576 30.16 85.4976 30.52 85.3109 30.92C85.1509 31.2933 85.0043 31.64 84.8709 31.96C84.3909 33.0267 83.9776 33.8933 83.6309 34.56C83.2843 35.2267 82.9776 35.84 82.7109 36.4C82.4443 36.96 82.1643 37.6133 81.8709 38.36C81.2576 39.3467 80.6576 40.28 80.0709 41.16C79.5109 42.0667 78.9109 42.9067 78.2709 43.68C78.0043 43.92 77.6709 44.2 77.2709 44.52C76.8709 44.84 76.4576 45.1333 76.0309 45.4C75.6309 45.6667 75.2443 45.8533 74.8709 45.96ZM80.2709 36.36C79.8709 36.3067 79.4709 36.0667 79.0709 35.64C78.6976 35.2133 78.4043 34.76 78.1909 34.28C77.9776 33.8 77.8976 33.4533 77.9509 33.24C77.9509 33.1067 77.9509 33 77.9509 32.92C77.9509 32.84 77.9509 32.8 77.9509 32.8C77.7909 32.8 77.6443 32.6 77.5109 32.2C77.4043 31.8 77.3243 31.28 77.2709 30.64C77.2176 30 77.1776 29.32 77.1509 28.6C77.1509 27.88 77.1776 27.2 77.2309 26.56C77.3376 26.1067 77.3909 25.6133 77.3909 25.08C77.3909 24.52 77.4043 24.08 77.4309 23.76C77.4043 23.3333 77.4443 23.0533 77.5509 22.92C77.6576 22.76 77.7643 22.64 77.8709 22.56C78.6176 22.24 79.1109 22.44 79.3509 23.16C79.6176 23.8533 79.6843 25.16 79.5509 27.08C79.4976 28.1467 79.4976 29.2133 79.5509 30.28C79.6043 31.3467 79.7509 32.28 79.9909 33.08C80.2576 33.88 80.6176 34.4267 81.0709 34.72C81.2576 34.8267 81.3509 34.9733 81.3509 35.16C81.3509 35.3467 81.2976 35.5467 81.1909 35.76C81.0843 35.9467 80.9376 36.1067 80.7509 36.24C80.5909 36.3467 80.4309 36.3867 80.2709 36.36ZM87.2331 37.84C87.1265 37.7867 86.9798 37.68 86.7931 37.52C86.6331 37.36 86.4865 37.2 86.3531 37.04C86.2731 36.96 86.2065 36.8933 86.1531 36.84C86.0998 36.76 86.0465 36.7067 85.9931 36.68C85.9931 36.4933 86.0331 36.36 86.1131 36.28C86.2198 36.2 86.3265 36.1067 86.4331 36C86.5398 35.84 86.7131 35.76 86.9531 35.76C87.1931 35.76 87.3798 35.6933 87.5131 35.56C87.9931 35.2133 88.4865 34.8533 88.9931 34.48C89.4998 34.1067 89.9265 33.6667 90.2731 33.16C90.6465 32.6267 91.0198 32.0533 91.3931 31.44C91.7665 30.8267 92.1265 30.2267 92.4731 29.64C92.5798 29.4533 92.7531 29.12 92.9931 28.64C93.2331 28.16 93.4598 27.6933 93.6731 27.24C93.9131 26.76 94.0465 26.4267 94.0731 26.24C93.8331 26.16 93.6065 26.0933 93.3931 26.04C93.2065 25.96 93.0198 25.8933 92.8331 25.84C92.5931 25.4667 92.4598 25.2533 92.4331 25.2C92.4065 25.12 92.3931 24.8667 92.3931 24.44C92.3931 24.12 92.5665 23.92 92.9131 23.84C93.6865 23.6533 94.3665 23.5333 94.9531 23.48C95.5665 23.4267 96.1665 23.32 96.7531 23.16C97.1265 23.0533 97.5798 23.0133 98.1131 23.04C98.6465 23.0667 99.1798 23.1867 99.7131 23.4C99.9531 23.5067 100.153 23.64 100.313 23.8C100.473 23.96 100.62 24.1467 100.753 24.36C101.1 24.84 101.273 25.2533 101.273 25.6C101.3 25.9467 101.286 26.28 101.233 26.6C101.18 26.92 101.22 27.28 101.353 27.68C101.166 28.4 100.98 29.04 100.793 29.6C100.606 30.1333 100.433 30.64 100.273 31.12C100.113 31.5733 99.9665 32 99.8331 32.4C99.6998 32.8 99.5931 33.2 99.5131 33.6C99.4065 34.0267 99.2731 34.4533 99.1131 34.88C98.9531 35.3067 98.8331 35.7467 98.7531 36.2C98.6998 36.5467 98.5398 36.8 98.2731 36.96C98.0331 37.12 97.7665 37.2667 97.4731 37.4C97.3665 37.4267 97.1798 37.4 96.9131 37.32C96.6731 37.2133 96.4465 37.0667 96.2331 36.88C96.1531 36.5867 96.1265 36.32 96.1531 36.08C96.1798 35.84 96.2331 35.6 96.3131 35.36C96.3931 35.1467 96.5398 34.6667 96.7531 33.92C96.9665 33.1733 97.2065 32.3333 97.4731 31.4C97.7398 30.4667 97.9931 29.6 98.2331 28.8C98.4731 28 98.6331 27.44 98.7131 27.12C98.8465 26.6933 98.8865 26.3733 98.8331 26.16C98.8065 25.9467 98.7665 25.7467 98.7131 25.56C98.1531 25.3467 97.7665 25.28 97.5531 25.36C97.3665 25.4133 97.1265 25.4667 96.8331 25.52C96.6998 25.6267 96.5931 25.7467 96.5131 25.88C96.4331 26.0133 96.3798 26.1467 96.3531 26.28C96.0598 27.0533 95.8065 27.6667 95.5931 28.12C95.4065 28.5733 95.2198 28.9867 95.0331 29.36C94.8465 29.7067 94.6331 30.0933 94.3931 30.52C94.1798 30.9467 93.8998 31.5333 93.5531 32.28C93.3398 32.76 93.0731 33.2 92.7531 33.6C92.4598 34 92.1931 34.4267 91.9531 34.88L91.5131 35.44C91.5398 35.44 91.4331 35.5467 91.1931 35.76C90.9531 35.9733 90.7131 36.1867 90.4731 36.4C90.2598 36.6133 90.1531 36.72 90.1531 36.72L88.9131 37.68C88.7798 37.7867 88.5531 37.84 88.2331 37.84C87.9131 37.84 87.5798 37.84 87.2331 37.84ZM114.294 37.52C113.414 37.2 112.734 36.6 112.254 35.72C111.774 34.8133 111.467 33.9333 111.334 33.08C111.307 33.08 111.227 33.1333 111.094 33.24C110.987 33.32 110.854 33.4533 110.694 33.64C110.32 34.0133 109.854 34.48 109.294 35.04C108.734 35.5733 108.147 36.0533 107.534 36.48C106.947 36.88 106.387 37.0533 105.854 37C105.64 36.8667 105.414 36.72 105.174 36.56C104.96 36.3733 104.747 36.1867 104.534 36C104.427 35.8933 104.334 35.7867 104.254 35.68C104.2 35.5733 104.147 35.4533 104.094 35.32C103.8 34.52 103.64 33.8133 103.614 33.2C103.587 32.56 103.654 31.9333 103.814 31.32C104 30.68 104.214 29.9733 104.454 29.2C104.48 29.12 104.574 28.7867 104.734 28.2C104.92 27.6133 105.134 26.9467 105.374 26.2C105.614 25.4533 105.84 24.7867 106.054 24.2C106.294 23.6133 106.467 23.2667 106.574 23.16C106.654 23.16 106.734 23.16 106.814 23.16C106.92 23.1333 107.014 23.12 107.094 23.12C107.36 23.12 107.56 23.2133 107.694 23.4C107.8 23.56 107.934 23.68 108.094 23.76C108.28 23.84 108.414 23.9467 108.494 24.08C108.627 24.3467 108.534 24.92 108.214 25.8C107.894 26.6533 107.547 27.6267 107.174 28.72C106.827 29.7067 106.534 30.7067 106.294 31.72C106.054 32.7067 106.04 33.5333 106.254 34.2C106.44 34.2 106.694 34.04 107.014 33.72C107.36 33.3733 107.627 33.1333 107.814 33C108.08 32.84 108.427 32.5333 108.854 32.08C109.307 31.6 109.747 31.12 110.174 30.64C110.6 30.1333 110.894 29.7467 111.054 29.48C111.16 29.32 111.32 29.0267 111.534 28.6C111.747 28.1467 111.96 27.6667 112.174 27.16C112.414 26.6267 112.6 26.1333 112.734 25.68C112.894 25.2267 112.96 24.9067 112.934 24.72C112.907 24.4533 112.934 24.2533 113.014 24.12C113.12 23.96 113.28 23.8133 113.494 23.68C113.627 23.68 113.774 23.68 113.934 23.68C114.094 23.68 114.24 23.6933 114.374 23.72C114.534 23.9067 114.707 24.08 114.894 24.24C115.08 24.4 115.267 24.5733 115.454 24.76C115.587 25.2667 115.507 25.9467 115.214 26.8C114.92 27.6533 114.627 28.5733 114.334 29.56C114.04 30.5467 113.854 31.5467 113.774 32.56C113.694 33.5467 113.96 34.4133 114.574 35.16C115.134 34.92 115.56 34.6933 115.854 34.48C116.174 34.24 116.48 34 116.774 33.76C117.067 33.4933 117.44 33.2267 117.894 32.96C118.16 33.12 118.36 33.44 118.494 33.92C118.627 34.4 118.694 34.7867 118.694 35.08C118.587 35.16 118.48 35.24 118.374 35.32C118.294 35.3733 118.227 35.4533 118.174 35.56C118.014 35.9067 117.694 36.2533 117.214 36.6C116.734 36.9467 116.227 37.2267 115.694 37.44C115.16 37.6267 114.694 37.6533 114.294 37.52ZM130.627 37.56C130.467 37.5067 130.307 37.4667 130.147 37.44C129.987 37.3867 129.827 37.3333 129.667 37.28C129.534 37.2267 129.374 37.1867 129.187 37.16C128.921 36.7867 128.814 36.3333 128.867 35.8C128.921 35.24 129.041 34.6667 129.227 34.08C129.441 33.4933 129.641 32.92 129.827 32.36C130.041 31.8 130.161 31.32 130.187 30.92C130.161 30.8133 130.121 30.7867 130.067 30.84C130.014 30.8667 129.987 30.9067 129.987 30.96C129.801 31.1733 129.534 31.32 129.187 31.4C128.841 31.48 128.521 31.5467 128.227 31.6C127.721 31.68 127.214 31.7733 126.707 31.88C126.201 31.9867 125.707 32.1067 125.227 32.24C125.147 32.1867 125.054 32.12 124.947 32.04C124.867 31.96 124.787 31.8933 124.707 31.84C124.521 31.84 124.361 32.0133 124.227 32.36C124.094 32.7067 123.974 33.1333 123.867 33.64C123.761 34.12 123.654 34.5867 123.547 35.04C123.467 35.4667 123.387 35.7733 123.307 35.96C122.881 36.0133 122.574 36.0267 122.387 36C122.227 35.9733 121.921 35.8933 121.467 35.76C121.254 35.4667 121.134 35.1867 121.107 34.92C121.107 34.6533 121.147 34.36 121.227 34.04C121.361 33.4267 121.467 32.9333 121.547 32.56C121.654 32.1867 121.827 31.7067 122.067 31.12C122.201 30.8267 122.321 30.5467 122.427 30.28C122.561 29.9867 122.627 29.6667 122.627 29.32C122.841 29.0533 122.987 28.76 123.067 28.44C123.147 28.12 123.241 27.8 123.347 27.48C123.774 26.3867 124.107 25.5467 124.347 24.96C124.614 24.3467 124.801 23.8667 124.907 23.52C125.014 23.1733 125.081 22.8533 125.107 22.56C125.134 22.1867 125.361 22 125.787 22C126.054 22 126.334 22.1067 126.627 22.32C126.921 22.5067 127.147 22.7467 127.307 23.04C127.467 23.3333 127.481 23.64 127.347 23.96C127.267 24.1733 127.134 24.52 126.947 25C126.787 25.4533 126.601 25.96 126.387 26.52C126.201 27.0533 126.014 27.56 125.827 28.04C125.667 28.4933 125.534 28.8267 125.427 29.04C125.401 29.1467 125.347 29.24 125.267 29.32C125.187 29.3733 125.147 29.4667 125.147 29.6C125.334 29.7333 125.641 29.7867 126.067 29.76C126.521 29.7067 126.841 29.6267 127.027 29.52C127.427 29.52 127.814 29.52 128.187 29.52C128.587 29.52 128.987 29.52 129.387 29.52C129.787 29.76 130.094 30.12 130.307 30.6C130.494 30.0933 130.747 29.4267 131.067 28.6C131.387 27.7467 131.694 26.9067 131.987 26.08C132.281 25.2533 132.454 24.6267 132.507 24.2C132.561 23.96 132.667 23.7467 132.827 23.56C132.987 23.3733 133.161 23.2267 133.347 23.12C133.721 23.3067 134.081 23.4667 134.427 23.6C134.801 23.7067 135.041 24.0133 135.147 24.52C135.121 24.76 135.067 25 134.987 25.24C134.907 25.4533 134.827 25.6667 134.747 25.88C134.481 26.6533 134.147 27.5067 133.747 28.44C133.347 29.3467 132.974 30.28 132.627 31.24C132.307 32.1733 132.081 33.0533 131.947 33.88C131.947 33.96 131.881 34.2267 131.747 34.68C131.641 35.1333 131.521 35.5733 131.387 36C131.281 36.4267 131.214 36.6533 131.187 36.68C131.187 36.8667 131.134 37.04 131.027 37.2C130.921 37.3333 130.787 37.4533 130.627 37.56ZM139.402 36.68C139.082 36.7333 138.735 36.68 138.362 36.52C137.989 36.36 137.655 36.1333 137.362 35.84C137.095 35.5467 136.922 35.24 136.842 34.92C136.735 34.36 136.802 33.6667 137.042 32.84C137.309 31.9867 137.682 31.0933 138.162 30.16C138.669 29.2 139.229 28.28 139.842 27.4C140.482 26.52 141.135 25.76 141.802 25.12C142.495 24.4533 143.135 24 143.722 23.76C144.015 23.5733 144.242 23.4533 144.402 23.4C144.589 23.32 144.775 23.3067 144.962 23.36C145.175 23.4133 145.482 23.5467 145.882 23.76C146.255 23.8667 146.535 23.9867 146.722 24.12C146.909 24.2533 147.149 24.52 147.442 24.92C147.655 25.32 147.815 25.72 147.922 26.12C148.029 26.52 148.122 26.9733 148.202 27.48C148.415 28.1467 148.495 28.5867 148.442 28.8C148.389 28.9867 148.309 29.1333 148.202 29.24C147.989 29.5067 147.935 29.64 148.042 29.64C148.042 29.64 148.029 29.6933 148.002 29.8C148.002 29.88 147.949 30.0133 147.842 30.2C147.655 30.7867 147.509 31.4 147.402 32.04C147.322 32.6533 147.335 33.16 147.442 33.56C147.655 34.1467 148.042 34.4933 148.602 34.6C149.162 34.7067 149.735 34.4667 150.322 33.88C150.615 33.6667 150.895 33.48 151.162 33.32C151.429 33.1333 151.562 33.1467 151.562 33.36C151.562 33.36 151.602 33.4 151.682 33.48C151.762 33.5333 151.855 33.56 151.962 33.56C152.095 33.56 152.175 33.6133 152.202 33.72C152.255 33.8267 152.255 33.9733 152.202 34.16C152.175 34.32 152.095 34.5067 151.962 34.72C151.562 35.12 151.362 35.3867 151.362 35.52C151.362 35.52 151.309 35.5733 151.202 35.68C151.122 35.76 150.975 35.8933 150.762 36.08C150.282 36.3733 149.669 36.52 148.922 36.52C148.202 36.52 147.642 36.3733 147.242 36.08C146.842 35.7867 146.469 35.3867 146.122 34.88C145.802 34.3733 145.589 33.9333 145.482 33.56L145.282 33.16L144.122 33.92C143.829 34.2133 143.509 34.4933 143.162 34.76C142.842 35.0267 142.629 35.2133 142.522 35.32C142.442 35.4267 142.349 35.52 142.242 35.6C142.162 35.68 142.069 35.72 141.962 35.72C141.855 35.72 141.762 35.72 141.682 35.72C141.602 35.72 141.562 35.72 141.562 35.72C141.562 35.8267 141.429 35.96 141.162 36.12C140.922 36.28 140.629 36.4133 140.282 36.52C139.962 36.6267 139.669 36.68 139.402 36.68ZM139.002 34.52C139.162 34.52 139.442 34.4 139.842 34.16C140.269 33.8933 140.735 33.5867 141.242 33.24C141.775 32.8933 142.242 32.5467 142.642 32.2C143.069 31.8533 143.362 31.5867 143.522 31.4C143.629 31.2933 143.802 31.12 144.042 30.88C144.282 30.6133 144.495 30.3867 144.682 30.2C145.295 29.5067 145.722 28.7467 145.962 27.92C146.202 27.0667 146.175 26.4 145.882 25.92C145.775 25.6267 145.642 25.4667 145.482 25.44C145.322 25.4133 144.989 25.5067 144.482 25.72C144.162 25.9067 143.762 26.2667 143.282 26.8C142.829 27.3067 142.335 27.9067 141.802 28.6C141.295 29.2667 140.815 29.96 140.362 30.68C139.909 31.4 139.535 32.0667 139.242 32.68C138.949 33.2933 138.802 33.7733 138.802 34.12C138.802 34.2267 138.829 34.32 138.882 34.4C138.962 34.48 139.002 34.52 139.002 34.52ZM151.568 46.92C151.381 46.84 151.181 46.7067 150.968 46.52C150.755 46.3333 150.581 46.12 150.448 45.88C150.315 45.6667 150.248 45.48 150.248 45.32C150.248 45.16 150.315 44.7333 150.448 44.04C150.581 43.3733 150.755 42.5467 150.968 41.56C151.208 40.6 151.461 39.6133 151.728 38.6C152.021 37.6133 152.315 36.7333 152.608 35.96C152.661 35.8267 152.835 35.3867 153.128 34.64C153.448 33.8667 153.755 32.9333 154.048 31.84C154.261 31.1467 154.541 30.36 154.888 29.48C155.235 28.6 155.595 27.72 155.968 26.84C156.341 25.9333 156.648 25.1333 156.888 24.44C157.128 23.7467 157.328 23.1867 157.488 22.76C157.675 22.3067 157.781 22.0267 157.808 21.92C157.861 21.76 157.941 21.6267 158.048 21.52C158.181 21.3867 158.315 21.28 158.448 21.2C158.581 21.0933 158.688 21.0267 158.768 21C159.248 20.8667 159.661 21.0667 160.008 21.6C160.141 21.84 160.168 22.12 160.088 22.44C160.008 22.76 159.861 23.16 159.648 23.64L159.368 24.44L160.808 24.12C161.048 24.12 161.341 24.1333 161.688 24.16C162.061 24.16 162.421 24.16 162.768 24.16C163.115 24.16 163.368 24.1867 163.528 24.24C164.168 24.2667 164.608 24.3867 164.848 24.6C165.115 24.8133 165.341 25.0933 165.528 25.44C165.661 25.5733 165.821 25.76 166.008 26C166.195 26.2133 166.301 26.4267 166.328 26.64C166.435 27.0933 166.435 27.5867 166.328 28.12C166.248 28.6267 166.088 29.1333 165.848 29.64C165.635 30.1467 165.341 30.6133 164.968 31.04C164.621 31.44 164.248 31.7733 163.848 32.04C163.581 32.1467 163.341 32.2667 163.128 32.4C162.915 32.5067 162.808 32.56 162.808 32.56C162.781 32.6933 162.488 32.9067 161.928 33.2C161.368 33.4667 160.728 33.72 160.008 33.96C159.288 34.2 158.661 34.36 158.128 34.44C157.941 34.4667 157.675 34.4933 157.328 34.52C156.981 34.5467 156.715 34.5067 156.528 34.4C156.235 34.3467 156.035 34.32 155.928 34.32C155.821 34.32 155.768 34.3733 155.768 34.48C155.741 34.5333 155.555 35.0933 155.208 36.16C154.861 37.2267 154.501 38.4667 154.128 39.88C153.621 41.4267 153.208 42.6533 152.888 43.56C152.568 44.4933 152.315 45.1867 152.128 45.64C151.968 46.0933 151.848 46.4 151.768 46.56C151.688 46.7467 151.621 46.8667 151.568 46.92ZM156.568 32.16C156.648 32.32 156.901 32.3733 157.328 32.32C157.781 32.24 158.315 32.08 158.928 31.84C159.568 31.5733 160.195 31.28 160.808 30.96C161.421 30.6133 161.928 30.2667 162.328 29.92C162.915 29.2533 163.395 28.64 163.768 28.08C164.141 27.4933 164.195 27.1067 163.928 26.92C163.635 26.4933 163.088 26.2933 162.288 26.32C161.488 26.3467 160.501 26.68 159.328 27.32C158.875 27.48 158.528 27.6933 158.288 27.96C158.075 28.2 157.888 28.5067 157.728 28.88C157.568 29.2533 157.368 29.7067 157.128 30.24C156.888 30.8267 156.728 31.2667 156.648 31.56C156.568 31.8533 156.541 32.0533 156.568 32.16Z" fill="white"/>
<g clip-path="url(#clip0_175_23)">
<path d="M8.69565 31.5186V48.913C8.69565 49.5128 9.18128 50 9.78261 50H40.2174C40.5066 50 40.7826 49.8859 40.9859 49.6816C41.1892 49.4772 41.3043 49.2012 41.3043 48.913L41.3033 42.3966C41.3033 42.3945 41.3043 42.3934 41.3043 42.3913C41.3043 42.3892 41.3033 42.3881 41.3033 42.386L41.3012 31.5196C46.4042 29.3871 50 24.3456 50 18.4783C50 10.687 43.6608 4.34783 35.8696 4.34783C35.6435 4.34783 35.4216 4.36534 35.1987 4.37596C32.6241 1.68563 29.0087 0 25 0C20.9913 0 17.3759 1.68563 14.8013 4.37596C14.5784 4.36534 14.3565 4.34783 14.1304 4.34783C6.33916 4.34783 0 10.687 0 18.4783C0 24.3445 3.59471 29.385 8.69565 31.5186ZM10.8696 47.8261V43.4783H39.1294L39.1304 47.8261H10.8696ZM13.0796 6.57481C11.688 8.76306 10.8696 11.3499 10.8696 14.1304C10.8696 21.9217 17.2087 28.2609 25 28.2609C25.6013 28.2609 26.087 27.7736 26.087 27.1739C26.087 26.5742 25.6013 26.087 25 26.087C18.4077 26.087 13.0435 20.7228 13.0435 14.1304C13.0435 7.53811 18.4077 2.17391 25 2.17391C31.5923 2.17391 36.9565 7.53811 36.9565 14.1304C36.9565 14.7302 37.4422 15.2174 38.0435 15.2174C38.6448 15.2174 39.1304 14.7302 39.1304 14.1304C39.1304 11.3499 38.312 8.76306 36.9204 6.57481C43.0218 7.1098 47.8261 12.2405 47.8261 18.4783C47.8261 25.0706 42.4619 30.4348 35.8696 30.4348C35.2682 30.4348 34.7826 30.922 34.7826 31.5217C34.7826 32.1215 35.2682 32.6087 35.8696 32.6087C36.9926 32.6087 38.0796 32.4633 39.1273 32.2144L39.1294 41.3043H10.8696V32.2144C11.9183 32.4633 13.0063 32.6087 14.1304 32.6087C14.7318 32.6087 15.2174 32.1215 15.2174 31.5217C15.2174 30.922 14.7318 30.4348 14.1304 30.4348C7.53811 30.4348 2.17391 25.0706 2.17391 18.4783C2.17391 12.2405 6.97818 7.1098 13.0796 6.57481Z" fill="white"/>
</g>
<defs>
<clipPath id="clip0_175_23">
<rect width="50" height="50" fill="white"/>
</clipPath>
</defs>
</svg>
