<svg width="17" height="21" viewBox="0 0 17 21" fill="none" xmlns="http://www.w3.org/2000/svg">
<path d="M8.50004 0.5C6.37831 0.5 4.34348 1.34285 2.84319 2.84315C1.3429 4.34344 0.500043 6.37827 0.500043 8.5C0.49346 10.4909 1.23595 12.4113 2.58004 13.88L8.12004 20.325C8.16698 20.3799 8.22526 20.424 8.29085 20.4542C8.35645 20.4844 8.42782 20.5 8.50004 20.5C8.57227 20.5 8.64363 20.4844 8.70923 20.4542C8.77483 20.424 8.8331 20.3799 8.88004 20.325L14.42 13.88C15.7641 12.4113 16.5066 10.4909 16.5 8.5C16.5 6.37827 15.6572 4.34344 14.1569 2.84315C12.6566 1.34285 10.6218 0.5 8.50004 0.5ZM13.66 13.23L8.50004 19.235L3.34004 13.235C2.422 12.2335 1.81522 10.9865 1.59371 9.64614C1.3722 8.30573 1.54554 6.92984 2.09258 5.68625C2.63962 4.44267 3.53673 3.38515 4.67448 2.64267C5.81223 1.90019 7.14146 1.50484 8.50004 1.50484C9.85863 1.50484 11.1879 1.90019 12.3256 2.64267C13.4634 3.38515 14.3605 4.44267 14.9075 5.68625C15.4545 6.92984 15.6279 8.30573 15.4064 9.64614C15.1849 10.9865 14.5781 12.2335 13.66 13.235V13.23Z" fill="white"/>
<path d="M8.5 5C7.80777 5 7.13108 5.20527 6.55551 5.58986C5.97993 5.97444 5.53133 6.52107 5.26642 7.16061C5.00152 7.80015 4.9322 8.50388 5.06725 9.18282C5.2023 9.86175 5.53564 10.4854 6.02513 10.9749C6.51461 11.4644 7.13825 11.7977 7.81719 11.9327C8.49612 12.0678 9.19985 11.9985 9.83939 11.7336C10.4789 11.4687 11.0256 11.0201 11.4101 10.4445C11.7947 9.86892 12 9.19223 12 8.5C12 7.57174 11.6313 6.6815 10.9749 6.02513C10.3185 5.36875 9.42826 5 8.5 5ZM8.5 11C8.00555 11 7.5222 10.8534 7.11108 10.5787C6.69995 10.304 6.37952 9.91352 6.1903 9.45671C6.00108 8.99989 5.95158 8.49723 6.04804 8.01227C6.1445 7.52732 6.3826 7.08186 6.73223 6.73223C7.08187 6.3826 7.52732 6.1445 8.01228 6.04804C8.49723 5.95157 8.9999 6.00108 9.45671 6.1903C9.91353 6.37952 10.304 6.69995 10.5787 7.11107C10.8534 7.5222 11 8.00555 11 8.5C11 9.16304 10.7366 9.79893 10.2678 10.2678C9.79893 10.7366 9.16304 11 8.5 11Z" fill="white"/>
</svg>
