<svg width="25" height="19" viewBox="0 0 25 19" fill="none" xmlns="http://www.w3.org/2000/svg">
<path d="M24.375 0H0V13.75C0 14.9103 0.460936 16.0231 1.28141 16.8436C2.10188 17.6641 3.21468 18.125 4.375 18.125H20.625C21.7853 18.125 22.8981 17.6641 23.7186 16.8436C24.5391 16.0231 25 14.9103 25 13.75V0H24.375ZM23.75 1.25V3.98125L12.5 9.30625L1.25 3.98125V1.25H23.75ZM20.625 16.875H4.375C3.5462 16.875 2.75134 16.5458 2.16529 15.9597C1.57924 15.3737 1.25 14.5788 1.25 13.75V5.3625L12.5 10.6938L23.75 5.3625V13.75C23.75 14.5788 23.4208 15.3737 22.8347 15.9597C22.2487 16.5458 21.4538 16.875 20.625 16.875Z" fill="white"/>
</svg>
