<svg width="24" height="24" viewBox="0 0 24 24" fill="none" xmlns="http://www.w3.org/2000/svg">
<path d="M23.8138 19.14L17.8138 13.362C17.7356 13.287 17.6385 13.2345 17.5329 13.2102C17.4272 13.1859 17.317 13.1907 17.2138 13.224L13.9678 14.304L9.68983 10.032L10.7998 6.78001C10.8332 6.67686 10.838 6.56661 10.8137 6.46096C10.7894 6.35531 10.7369 6.25823 10.6618 6.18001L4.88383 0.18001C4.82827 0.123317 4.762 0.078215 4.68887 0.047317C4.61575 0.0164191 4.53722 0.000339579 4.45783 1.00286e-05C4.37887 -0.000446507 4.30059 0.0146885 4.22749 0.0445473C4.15439 0.0744061 4.0879 0.118401 4.03183 0.17401L1.63783 2.52601C0.588847 3.58059 0 5.00756 0 6.49501C0 7.98246 0.588847 9.40943 1.63783 10.464L13.5298 22.356C14.5834 23.4046 16.0094 23.9933 17.4958 23.9933C18.9823 23.9933 20.4083 23.4046 21.4618 22.356L23.8258 19.992C23.8814 19.9359 23.9254 19.8695 23.9553 19.7964C23.9852 19.7233 24.0003 19.645 23.9998 19.566C23.9987 19.4862 23.9817 19.4074 23.9498 19.3343C23.9178 19.2611 23.8716 19.1951 23.8138 19.14ZM20.6158 21.54C19.7881 22.3648 18.6673 22.8279 17.4988 22.8279C16.3304 22.8279 15.2095 22.3648 14.3818 21.54L2.48383 9.59401C1.662 8.76477 1.20091 7.64451 1.20091 6.47701C1.20091 5.30951 1.662 4.18925 2.48383 3.36001L4.41583 1.42801L9.51583 6.72601L8.42983 9.98401C8.39725 10.0877 8.39343 10.1983 8.41879 10.3039C8.44416 10.4096 8.49774 10.5064 8.57383 10.584L13.3738 15.384C13.4508 15.4611 13.5473 15.5158 13.653 15.5423C13.7587 15.5687 13.8696 15.5658 13.9738 15.534L17.2258 14.448L22.5238 19.548L20.6158 21.54Z" fill="white"/>
</svg>
