<svg width="34" height="34" viewBox="0 0 34 34" fill="none" xmlns="http://www.w3.org/2000/svg">
<path d="M33.0804 31.952L23.3044 22.168C25.514 19.6633 26.6621 16.3969 26.5055 13.0606C26.3489 9.72419 24.9 6.57972 22.4656 4.29293C20.0312 2.00614 16.8023 0.756557 13.4627 0.808762C10.123 0.860968 6.93482 2.21086 4.57305 4.57263C2.21129 6.93439 0.861395 10.1226 0.80919 13.4622C0.756984 16.8019 2.00656 20.0307 4.29336 22.4652C6.58015 24.8996 9.72462 26.3485 13.061 26.5051C16.3974 26.6616 19.6637 25.5136 22.1684 23.304L31.9524 33.08L33.0804 31.952ZM13.7204 24.92C11.5053 24.92 9.33987 24.2631 7.49803 23.0325C5.6562 21.8018 4.22067 20.0526 3.37297 18.006C2.52527 15.9595 2.30347 13.7076 2.73563 11.535C3.16778 9.3624 4.23448 7.36675 5.80083 5.8004C7.36717 4.23405 9.36282 3.16735 11.5354 2.7352C13.708 2.30304 15.9599 2.52484 18.0065 3.37254C20.053 4.22024 21.8022 5.65578 23.0329 7.49761C24.2636 9.33944 24.9204 11.5048 24.9204 13.72C24.9204 15.1908 24.6307 16.6472 24.0679 18.006C23.505 19.3649 22.68 20.5996 21.64 21.6396C20.6 22.6796 19.3653 23.5046 18.0065 24.0674C16.6476 24.6303 15.1912 24.92 13.7204 24.92Z" fill="#2E2E2E"/>
</svg>
